<svg width="1187" height="345" viewBox="0 0 1187 345" fill="none" xmlns="http://www.w3.org/2000/svg">
<g clip-path="url(#clip0_602_20)">
<g clip-path="url(#clip1_602_20)">
<g clip-path="url(#clip2_602_20)">
<path d="M493.058 254.359C480.016 254.359 470.029 250.644 463.095 243.216C456.327 235.787 452.943 225.304 452.943 211.768V118.662C452.943 105.125 456.327 94.6423 463.095 87.2137C470.029 79.785 480.016 76.0707 493.058 76.0707C506.099 76.0707 516.004 79.785 522.772 87.2137C529.706 94.6423 533.173 105.125 533.173 118.662V136.986H507.42V116.928C507.42 106.198 502.88 100.833 493.801 100.833C484.721 100.833 480.181 106.198 480.181 116.928V213.749C480.181 224.314 484.721 229.597 493.801 229.597C502.88 229.597 507.42 224.314 507.42 213.749V187.253H533.173V211.768C533.173 225.304 529.706 235.787 522.772 243.216C516.004 250.644 506.099 254.359 493.058 254.359ZM549.469 78.5469H589.832C603.864 78.5469 614.099 81.8485 620.537 88.4518C626.975 94.89 630.194 104.877 630.194 118.414V129.062C630.194 147.056 624.251 158.446 612.365 163.234V163.729C618.968 165.71 623.591 169.754 626.232 175.862C629.038 181.971 630.442 190.142 630.442 200.377V230.835C630.442 235.787 630.607 239.832 630.937 242.968C631.267 245.94 632.092 248.911 633.413 251.883H605.679C604.689 249.076 604.029 246.435 603.698 243.959C603.368 241.482 603.203 237.025 603.203 230.587V198.891C603.203 190.967 601.883 185.437 599.241 182.301C596.765 179.164 592.39 177.596 586.117 177.596H576.708V251.883H549.469V78.5469ZM586.613 152.834C592.06 152.834 596.105 151.43 598.746 148.624C601.552 145.818 602.956 141.113 602.956 134.51V121.138C602.956 114.865 601.8 110.325 599.489 107.519C597.343 104.712 593.876 103.309 589.089 103.309H576.708V152.834H586.613ZM649.34 78.5469H676.579V251.883H649.34V78.5469ZM696.979 78.5469H738.084C752.116 78.5469 762.351 81.8485 768.789 88.4518C775.227 94.89 778.446 104.877 778.446 118.414V125.348C778.446 134.262 776.961 141.526 773.989 147.138C771.183 152.751 766.808 156.796 760.865 159.272V159.767C774.402 164.389 781.17 176.44 781.17 195.92V210.777C781.17 224.149 777.621 234.384 770.522 241.482C763.589 248.416 753.354 251.883 739.817 251.883H696.979V78.5469ZM734.865 149.119C740.312 149.119 744.357 147.716 746.998 144.91C749.805 142.103 751.208 137.398 751.208 130.795V121.138C751.208 114.865 750.052 110.325 747.741 107.519C745.595 104.712 742.128 103.309 737.341 103.309H724.217V149.119H734.865ZM739.817 227.12C744.605 227.12 748.154 225.882 750.465 223.406C752.776 220.765 753.932 216.307 753.932 210.034V194.929C753.932 187.005 752.529 181.558 749.722 178.586C747.081 175.45 742.624 173.882 736.351 173.882H724.217V227.12H739.817ZM876.122 254.359C862.75 254.359 852.515 250.562 845.417 242.968C838.318 235.374 834.769 224.644 834.769 210.777V119.652C834.769 105.785 838.318 95.055 845.417 87.4613C852.515 79.8675 862.75 76.0707 876.122 76.0707C889.493 76.0707 899.728 79.8675 906.827 87.4613C913.925 95.055 917.475 105.785 917.475 119.652V210.777C917.475 224.644 913.925 235.374 906.827 242.968C899.728 250.562 889.493 254.359 876.122 254.359ZM876.122 229.597C885.531 229.597 890.236 223.901 890.236 212.511V117.919C890.236 106.528 885.531 100.833 876.122 100.833C866.712 100.833 862.007 106.528 862.007 117.919V212.511C862.007 223.901 866.712 229.597 876.122 229.597ZM935.895 78.5469H976.01C989.547 78.5469 999.7 82.1787 1006.47 89.4423C1013.24 96.7059 1016.62 107.354 1016.62 121.386V138.472C1016.62 152.503 1013.24 163.151 1006.47 170.415C999.7 177.678 989.547 181.31 976.01 181.31H963.134V251.883H935.895V78.5469ZM976.01 156.548C980.468 156.548 983.769 155.31 985.915 152.834C988.226 150.357 989.382 146.148 989.382 140.205V119.652C989.382 113.709 988.226 109.5 985.915 107.023C983.769 104.547 980.468 103.309 976.01 103.309H963.134V156.548H976.01ZM1067.79 254.359C1054.58 254.359 1044.6 250.644 1037.83 243.216C1031.06 235.622 1027.68 224.809 1027.68 210.777V200.872H1053.43V212.758C1053.43 223.984 1058.13 229.597 1067.54 229.597C1072.17 229.597 1075.63 228.276 1077.94 225.635C1080.42 222.828 1081.66 218.371 1081.66 212.263C1081.66 204.999 1080.01 198.644 1076.71 193.196C1073.4 187.583 1067.3 180.897 1058.38 173.139C1047.16 163.234 1039.31 154.319 1034.86 146.395C1030.4 138.306 1028.17 129.227 1028.17 119.157C1028.17 105.455 1031.64 94.89 1038.57 87.4613C1045.51 79.8675 1055.58 76.0707 1068.78 76.0707C1081.82 76.0707 1091.65 79.8675 1098.25 87.4613C1105.02 94.89 1108.4 105.62 1108.4 119.652V126.833H1082.65V117.919C1082.65 111.976 1081.49 107.684 1079.18 105.042C1076.87 102.236 1073.49 100.833 1069.03 100.833C1059.95 100.833 1055.41 106.363 1055.41 117.424C1055.41 123.697 1057.06 129.557 1060.36 135.005C1063.83 140.452 1070.02 147.056 1078.93 154.815C1090.32 164.719 1098.17 173.716 1102.46 181.805C1106.75 189.894 1108.9 199.387 1108.9 210.282C1108.9 224.479 1105.35 235.374 1098.25 242.968C1091.32 250.562 1081.16 254.359 1067.79 254.359Z" fill="#2E2E2E"/>
</g>
<g clip-path="url(#clip3_602_20)">
<g clip-path="url(#clip4_602_20)">
<g clip-path="url(#clip5_602_20)">
<mask id="mask0_602_20" style="mask-type:luminance" maskUnits="userSpaceOnUse" x="28" y="75" width="249" height="190">
<path d="M28.1257 75.4888H276.15V264.974H28.1257V75.4888Z" fill="white"/>
</mask>
<g mask="url(#mask0_602_20)">
<path fill-rule="evenodd" clip-rule="evenodd" d="M263.989 109.917H275.107L266.498 92.1749L266.456 92.0947L258.396 75.4888L248.001 89.4847L232.824 109.917H242.814C241.327 120.403 238.797 130.687 235.291 140.603C233.685 145.147 231.878 149.611 229.867 153.983C225.901 162.623 221.161 170.897 215.712 178.689C215.636 178.955 215.56 179.221 215.476 179.479C215.29 179.588 215.104 179.698 214.918 179.808C210.508 185.991 205.646 191.861 200.358 197.356C193.633 204.337 186.22 210.718 178.173 216.356C178.021 216.466 177.869 216.572 177.717 216.677C166.51 224.473 154.079 230.85 140.583 235.471L139.455 235.851C123.911 241.037 106.968 243.896 88.8509 243.909C88.8086 243.909 88.7622 243.909 88.7199 243.909C81.0195 243.909 73.8343 241.704 67.7601 237.891C56.634 230.905 49.2376 218.531 49.2376 204.434C49.2376 183.292 65.8678 166.023 86.76 165.005C87.4062 164.976 88.061 164.959 88.7199 164.959C95.7572 164.959 102.372 166.8 108.091 170.035C107.838 167.886 107.707 165.698 107.707 163.481C107.707 158.05 108.497 152.8 109.963 147.842C116.704 125.057 137.799 108.426 162.772 108.426C185.054 108.426 204.248 121.666 212.916 140.7C215.095 145.494 216.612 150.655 217.343 156.065C217.668 158.493 217.837 160.968 217.837 163.481C217.837 163.624 217.837 163.764 217.837 163.903C218.132 163.384 218.432 162.86 218.728 162.336C220.109 159.866 221.427 157.357 222.669 154.815C226.336 147.318 229.385 139.535 231.785 131.549C228.9 125.328 225.195 119.563 220.811 114.385C206.863 97.927 186.038 87.4702 162.772 87.4702C127.526 87.4702 97.8735 111.467 89.2691 144.007C89.0832 144.007 88.9016 144.003 88.7199 144.003C55.3414 144.003 28.2778 171.066 28.2778 204.434C28.2778 230.432 44.7094 252.605 67.7601 261.127C74.2441 263.526 81.256 264.844 88.5721 264.86H88.7199C88.7791 264.86 88.8382 264.86 88.8973 264.86C88.9142 264.86 88.9269 264.86 88.9396 264.86C124.363 264.822 157.175 254.733 184.657 237.101L187.077 235.521C192.159 232.143 197.05 228.498 201.739 224.613C214.301 214.194 225.377 202.014 234.619 188.385C237.301 184.437 239.827 180.357 242.193 176.172C245.64 170.065 248.744 163.713 251.473 157.146C257.243 143.277 261.353 128.436 263.562 112.839L263.976 109.904L263.989 109.917ZM89.3282 264.865C90.0378 264.856 90.0378 264.856 89.3282 264.865Z" fill="#00A5E2"/>
</g>
<path fill-rule="evenodd" clip-rule="evenodd" d="M164.766 217.682V154.734H142.154V228.401C149.994 225.487 157.555 221.901 164.766 217.682Z" fill="#B0B0B0"/>
<path fill-rule="evenodd" clip-rule="evenodd" d="M115.065 176.598H112.032V236.083C119.678 234.96 127.235 233.258 134.644 230.956V176.598H115.065Z" fill="#B0B0B0"/>
<path fill-rule="evenodd" clip-rule="evenodd" d="M194.879 132.875H172.268V212.969C172.922 212.53 173.569 212.086 174.211 211.639L174.65 211.33C181.903 206.245 188.67 200.498 194.875 194.184V132.875H194.879Z" fill="#00A5E2"/>
<path fill-rule="evenodd" clip-rule="evenodd" d="M274.946 154.409H293.878C297.063 154.409 299.661 157.011 299.661 160.191V179.124C299.661 182.304 297.063 184.905 293.878 184.905H274.946C271.761 184.905 269.159 182.304 269.159 179.124V160.191C269.159 157.011 271.761 154.409 274.946 154.409Z" fill="#00A5E2"/>
<path fill-rule="evenodd" clip-rule="evenodd" d="M303.374 136.431H314.8C316.722 136.431 318.293 138.002 318.293 139.919V151.343C318.293 153.26 316.722 154.831 314.8 154.831H303.374C301.456 154.831 299.881 153.26 299.881 151.343V139.919C299.881 138.002 301.452 136.431 303.374 136.431Z" fill="#B0B0B0"/>
<path fill-rule="evenodd" clip-rule="evenodd" d="M289.143 126.362H295.509C296.582 126.362 297.452 127.237 297.452 128.305V134.669C297.452 135.738 296.582 136.612 295.509 136.612H289.143C288.074 136.612 287.2 135.738 287.2 134.669V128.305C287.2 127.237 288.074 126.362 289.143 126.362Z" fill="#00A5E2"/>
<path fill-rule="evenodd" clip-rule="evenodd" d="M306.424 124.348H309.604C310.141 124.348 310.576 124.787 310.576 125.319V128.499C310.576 129.036 310.141 129.471 309.604 129.471H306.424C305.891 129.471 305.452 129.036 305.452 128.499V125.319C305.452 124.783 305.891 124.348 306.424 124.348Z" fill="#00A5E2"/>
<mask id="mask1_602_20" style="mask-type:luminance" maskUnits="userSpaceOnUse" x="137" y="158" width="153" height="107">
<path d="M137.736 158.738H289.126V264.975H137.736V158.738Z" fill="white"/>
</mask>
<g mask="url(#mask1_602_20)">
<path fill-rule="evenodd" clip-rule="evenodd" d="M232.739 243.917H185.392C170.789 252.934 155.122 259.721 138.809 264.252V264.873H232.739C263.381 264.873 288.227 240.028 288.227 209.392C288.227 202.335 286.909 195.59 284.509 189.382H274.946C269.303 189.382 264.682 184.762 264.682 179.119V164.021C262.299 162.345 259.782 160.845 257.142 159.553L257.023 159.836L257.015 159.857L256.888 160.161L256.757 160.469L256.631 160.765L256.622 160.782L256.504 161.065L256.487 161.099L256.373 161.373L256.352 161.42L256.242 161.673L256.212 161.732L256.111 161.973L256.077 162.045L255.938 162.357L255.845 162.573L255.803 162.67L255.714 162.872L255.663 162.987L255.655 163.008L255.528 163.299L255.452 163.472L255.389 163.612L255.317 163.772L255.245 163.928L255.232 163.962L254.966 164.553L254.911 164.676L254.823 164.866L254.776 164.971L254.683 165.174L254.641 165.267L254.54 165.487L254.502 165.567L254.396 165.795L254.367 165.863L254.252 166.108L254.227 166.158L254.109 166.416L254.092 166.454L253.961 166.724L253.953 166.749L253.813 167.045L253.67 167.345L253.53 167.641L253.526 167.657L253.391 167.936L253.378 167.966L253.251 168.236L253.23 168.278L253.108 168.532L253.082 168.587L252.964 168.827L252.93 168.895L252.778 169.203L252.677 169.419L252.63 169.511L252.533 169.714L252.483 169.82L252.39 170.006L252.326 170.128L252.242 170.301L252.174 170.436L252.022 170.745L251.95 170.892L251.803 171.188L251.714 171.357L251.655 171.48L251.562 171.661L251.507 171.771L251.405 171.965L251.359 172.062L251.253 172.273L251.097 172.578L250.945 172.882L250.915 172.937L250.789 173.186L250.768 173.228L250.628 173.49L250.616 173.519L250.472 173.794L250.464 173.811L250.316 174.102L250.155 174.402L250.012 174.681L249.995 174.702L249.855 174.968L249.834 175.006L249.703 175.255L249.674 175.306L249.547 175.547L249.513 175.61L249.395 175.834L249.353 175.914L249.239 176.125L249.192 176.214L249.086 176.417L249.032 176.518L248.93 176.704L248.867 176.818L248.373 177.717L248.301 177.852L248.208 178.017L248.039 178.313L247.98 178.423C259.397 184.052 267.254 195.81 267.254 209.4C267.254 228.464 251.79 243.926 232.727 243.921L232.739 243.917Z" fill="#B0B0B0"/>
</g>
<mask id="mask2_602_20" style="mask-type:luminance" maskUnits="userSpaceOnUse" x="70" y="204" width="36" height="33">
<path d="M70.8438 204.7H105.519V236.146H70.8438V204.7Z" fill="white"/>
</mask>
<g mask="url(#mask2_602_20)">
<path d="M86.1603 205.447L72.5799 213.894C71.4985 214.561 70.8438 215.744 70.8438 217.015V236.142H76.4703V221.606C76.4703 219.574 78.1176 217.931 80.1494 217.931H96.0572C98.089 217.931 99.7364 219.574 99.7364 221.606V236.142H105.363V217.015C105.363 215.744 104.704 214.561 103.627 213.894L90.0422 205.447C88.8552 204.708 87.3514 204.708 86.1603 205.447Z" fill="#B0B0B0"/>
</g>
<path d="M97.3116 222.425H78.8947V221.272H97.3116V222.425Z" fill="#B0B0B0"/>
<path d="M97.3116 224.384H78.8947V223.231H97.3116V224.384Z" fill="#B0B0B0"/>
<path d="M97.3116 226.344H78.8947V225.191H97.3116V226.344Z" fill="#B0B0B0"/>
<path d="M97.3116 228.304H78.8947V227.146H97.3116V228.304Z" fill="#B0B0B0"/>
<path d="M97.3116 230.263H78.8947V229.106H97.3116V230.263Z" fill="#B0B0B0"/>
<path d="M97.3116 232.223H78.8947V231.066H97.3116V232.223Z" fill="#B0B0B0"/>
<path d="M97.3116 234.183H78.8947V233.025H97.3116V234.183Z" fill="#B0B0B0"/>
<mask id="mask3_602_20" style="mask-type:luminance" maskUnits="userSpaceOnUse" x="78" y="234" width="20" height="3">
<path d="M78.2611 234.419H97.7256V236.146H78.2611V234.419Z" fill="white"/>
</mask>
<g mask="url(#mask3_602_20)">
<path d="M97.3115 236.142H78.8946V234.985H97.3115V236.142Z" fill="#B0B0B0"/>
</g>
<mask id="mask4_602_20" style="mask-type:luminance" maskUnits="userSpaceOnUse" x="271" y="158" width="1" height="2">
<path d="M271.073 158.489H271.824V159.819H271.073V158.489Z" fill="white"/>
</mask>
<g mask="url(#mask4_602_20)">
<path d="M271.09 158.645C271.09 158.742 271.094 158.776 271.098 158.725C271.106 158.675 271.106 158.595 271.098 158.552C271.094 158.51 271.09 158.552 271.09 158.645Z" fill="#2E2E2E"/>
</g>
<mask id="mask5_602_20" style="mask-type:luminance" maskUnits="userSpaceOnUse" x="271" y="163" width="1" height="18">
<path d="M271.073 163.062H271.824V180.361H271.073V163.062Z" fill="white"/>
</mask>
<g mask="url(#mask5_602_20)">
<path d="M271.094 171.547C271.094 178.533 271.098 181.396 271.098 177.908C271.106 174.423 271.106 168.705 271.098 165.208C271.098 161.711 271.094 164.562 271.094 171.547Z" fill="#2E2E2E"/>
</g>
<path d="M279.482 158.171C279.014 158.251 278.621 158.657 278.545 159.138C278.502 159.379 278.507 175.478 278.549 175.727C278.587 175.989 278.688 176.192 278.866 176.365C279.098 176.606 279.339 176.703 279.677 176.707C280.23 176.707 280.686 176.34 280.805 175.791C280.855 175.55 280.847 159.24 280.796 159.045C280.636 158.446 280.07 158.07 279.482 158.171Z" fill="#2E2E2E"/>
<path d="M284.049 158.184C283.66 158.273 283.326 158.572 283.199 158.961C283.157 159.096 283.153 159.742 283.157 167.479C283.166 175.854 283.166 175.854 283.254 176.044C283.47 176.5 283.964 176.77 284.454 176.699C284.826 176.652 285.176 176.39 285.341 176.044C285.43 175.854 285.43 175.854 285.43 167.437C285.43 159.02 285.43 159.02 285.341 158.83C285.181 158.492 284.851 158.243 284.471 158.171C284.285 158.137 284.272 158.137 284.049 158.184Z" fill="#2E2E2E"/>
<path d="M288.712 158.171C288.387 158.239 288.049 158.488 287.909 158.758C287.753 159.071 287.761 158.539 287.761 167.424C287.761 174.638 287.766 175.677 287.804 175.82C287.947 176.369 288.37 176.703 288.919 176.703C289.164 176.703 289.362 176.644 289.552 176.517C289.827 176.336 289.992 176.074 290.051 175.727C290.076 175.592 290.08 173.215 290.076 167.306C290.068 159.075 290.068 159.075 289.996 158.91C289.869 158.589 289.574 158.302 289.278 158.218C289.088 158.159 288.86 158.142 288.712 158.171Z" fill="#2E2E2E"/>
<mask id="mask6_602_20" style="mask-type:luminance" maskUnits="userSpaceOnUse" x="271" y="161" width="6" height="9">
<path d="M271.073 161.981H276.15V169.55H271.073V161.981Z" fill="white"/>
</mask>
<g mask="url(#mask6_602_20)">
<path d="M271.626 162.255C271.613 162.276 271.6 163.547 271.596 165.08C271.588 168.104 271.583 168.016 271.74 168.007C271.782 168.003 272.268 167.716 272.855 167.344C273.425 166.981 274.414 166.356 275.047 165.959C275.757 165.507 276.213 165.199 276.234 165.161C276.255 165.11 276.251 165.085 276.213 165.038C276.183 165.004 275.744 164.717 275.241 164.4C274.735 164.08 273.755 163.459 273.062 163.019C271.82 162.234 271.689 162.162 271.626 162.255Z" fill="#2E2E2E"/>
</g>
<mask id="mask7_602_20" style="mask-type:luminance" maskUnits="userSpaceOnUse" x="291" y="161" width="7" height="8">
<path d="M291.597 161.204H297.185V168.772H291.597V161.204Z" fill="white"/>
</mask>
<g mask="url(#mask7_602_20)">
<path d="M292.425 162.272C292.391 162.31 292.383 162.775 292.374 164.992C292.37 166.462 292.374 167.737 292.387 167.817C292.4 167.944 292.416 167.978 292.476 168.003C292.535 168.033 292.573 168.016 292.822 167.864C293.54 167.416 296.94 165.258 296.987 165.216C297.101 165.114 297.046 165.043 296.666 164.798C296.531 164.717 295.77 164.232 294.976 163.729C292.67 162.272 292.59 162.221 292.526 162.221C292.492 162.221 292.446 162.243 292.425 162.272Z" fill="#2E2E2E"/>
</g>
<path d="M274.764 170.942C274.435 171.035 274.173 171.259 274.016 171.584C273.919 171.774 273.919 171.774 273.911 176.027C273.902 180.538 273.902 180.457 274.038 180.728C274.122 180.897 274.346 181.133 274.502 181.213C274.806 181.365 274.177 181.357 284.298 181.357C294.414 181.357 293.789 181.365 294.093 181.213C294.275 181.12 294.482 180.892 294.583 180.673C294.676 180.483 294.676 180.483 294.685 176.188C294.689 172.349 294.685 171.876 294.647 171.736C294.491 171.213 293.95 170.845 293.413 170.913C293.181 170.942 292.89 171.099 292.712 171.297C292.526 171.496 292.438 171.686 292.4 171.947C292.383 172.074 292.37 173.434 292.37 175.588V179.03H276.226V175.588C276.226 173.455 276.213 172.07 276.196 171.947C276.095 171.251 275.402 170.765 274.764 170.942Z" fill="#2E2E2E"/>
</g>
</g>
</g>
</g>
</g>
<defs>
<clipPath id="clip0_602_20">
<rect width="1187" height="345" fill="white"/>
</clipPath>
<clipPath id="clip1_602_20">
<rect width="1186.73" height="345.26" fill="white"/>
</clipPath>
<clipPath id="clip2_602_20">
<rect width="814.368" height="230.598" fill="white" transform="translate(372.259 58.9067)"/>
</clipPath>
<clipPath id="clip3_602_20">
<rect width="293.82" height="293.82" fill="white" transform="translate(26.7425 27.5605)"/>
</clipPath>
<clipPath id="clip4_602_20">
<rect width="293.82" height="293.82" fill="white" transform="translate(26.7425 27.5605)"/>
</clipPath>
<clipPath id="clip5_602_20">
<rect width="292.778" height="191.365" fill="white" transform="translate(27.4371 75.4888)"/>
</clipPath>
</defs>
</svg>
